# xmcd CD database file
#
# Track frame offsets:
#	150
#	33725
#	58426
#	73517
#	105595
#	130280
#	161481
#	188074
#	206674
#	231322
#	262271
#
# Disc length: 4096 seconds
#
# Revision: 0
# Processed by: cddbd v1.5PL3 Copyright (c) Steve Scherf et al.
# Submitted via: CDex 1.51
#
DISCID=aa0ffe0b
DTITLE=The Doncaster Jazz Orchestra - Discover The Spirit
DYEAR=2003
DGENRE=Jazz
TTITLE0=Count Bubba
TTITLE1=Who Can I Turn To
TTITLE2=Lonely Street
TTITLE3=This Is Always
TTITLE4=Good News
TTITLE5=Silky
TTITLE6=A Salute To Elvis Costello
TTITLE7=Almost There
TTITLE8=The Never-Ending Ending Blues
TTITLE9=Our Love Is Here To Stay
TTITLE10=West Side Story Suite
EXTD=YEAR: 2003
EXTT0=
EXTT1=
EXTT2=
EXTT3=
EXTT4=
EXTT5=
EXTT6=
EXTT7=
EXTT8=
EXTT9=
EXTT10=
PLAYORDER=
